<?xml version="1.0" encoding="UTF-8"?>
<svg id="Camada_1" xmlns="http://www.w3.org/2000/svg" version="1.1" xmlns:xlink="http://www.w3.org/1999/xlink" viewBox="0 0 500 55">
  <!-- Generator: Adobe Illustrator 29.5.1, SVG Export Plug-In . SVG Version: 2.1.0 Build 141)  -->
  <defs>
    <style>
      .st0 {
        fill: url(#Gradiente_sem_nome_1626);
      }

      .st1 {
        fill: url(#Gradiente_sem_nome_2124);
      }

      .st2 {
        fill: url(#Gradiente_sem_nome_1622);
      }

      .st3 {
        fill: #fff;
      }

      .st4 {
        fill: url(#Gradiente_sem_nome_162);
      }

      .st5 {
        fill: url(#Gradiente_sem_nome_1627);
      }

      .st6 {
        fill: url(#Gradiente_sem_nome_1621);
      }

      .st7 {
        fill: url(#Gradiente_sem_nome_2122);
      }

      .st8 {
        fill: url(#Gradiente_sem_nome_212);
      }

      .st9 {
        fill: url(#Gradiente_sem_nome_2125);
      }

      .st10 {
        fill: url(#Gradiente_sem_nome_1624);
      }

      .st11 {
        fill: url(#Gradiente_sem_nome_1625);
      }

      .st12 {
        fill: url(#Gradiente_sem_nome_2123);
      }

      .st13 {
        fill: url(#Gradiente_sem_nome_2121);
      }

      .st14 {
        fill: url(#Gradiente_sem_nome_1623);
      }

      .st15 {
        fill: url(#Gradiente_sem_nome_178);
      }

      .st16 {
        opacity: .5;
      }
    </style>
    <linearGradient id="Gradiente_sem_nome_162" data-name="Gradiente sem nome 162" x1="28.16" y1="18.67" x2="12.93" y2="18.67" gradientUnits="userSpaceOnUse">
      <stop offset="0" stop-color="#fff"/>
      <stop offset="1" stop-color="#c8c8c8"/>
    </linearGradient>
    <linearGradient id="Gradiente_sem_nome_1621" data-name="Gradiente sem nome 162" y1="45.35" x2="12.92" y2="45.35" xlink:href="#Gradiente_sem_nome_162"/>
    <linearGradient id="Gradiente_sem_nome_1622" data-name="Gradiente sem nome 162" x1="56.26" y1="31.94" x2="34.73" y2="31.94" xlink:href="#Gradiente_sem_nome_162"/>
    <linearGradient id="Gradiente_sem_nome_212" data-name="Gradiente sem nome 212" x1="49.86" y1="49.89" x2="49.86" y2="14" gradientUnits="userSpaceOnUse">
      <stop offset="0" stop-color="#fff"/>
      <stop offset="1" stop-color="#969696"/>
    </linearGradient>
    <linearGradient id="Gradiente_sem_nome_1623" data-name="Gradiente sem nome 162" x1="126.32" y1="31.94" x2="104.79" y2="31.94" xlink:href="#Gradiente_sem_nome_162"/>
    <linearGradient id="Gradiente_sem_nome_1624" data-name="Gradiente sem nome 162" x1="80.17" y1="45.06" x2="62.82" y2="45.06" xlink:href="#Gradiente_sem_nome_162"/>
    <linearGradient id="Gradiente_sem_nome_1625" data-name="Gradiente sem nome 162" x1="154.94" y1="31.94" x2="129.44" y2="31.94" xlink:href="#Gradiente_sem_nome_162"/>
    <linearGradient id="Gradiente_sem_nome_1626" data-name="Gradiente sem nome 162" x1="182.4" y1="31.99" x2="160.93" y2="31.99" xlink:href="#Gradiente_sem_nome_162"/>
    <linearGradient id="Gradiente_sem_nome_2121" data-name="Gradiente sem nome 212" x1="171.66" y1="45.88" x2="171.66" y2="14.46" xlink:href="#Gradiente_sem_nome_212"/>
    <linearGradient id="Gradiente_sem_nome_178" data-name="Gradiente sem nome 178" x1="74.37" y1="18.56" x2="99.1" y2="18.56" gradientUnits="userSpaceOnUse">
      <stop offset="0" stop-color="#fff"/>
      <stop offset=".5" stop-color="#c8c8c8"/>
      <stop offset="1" stop-color="#fff"/>
    </linearGradient>
    <linearGradient id="Gradiente_sem_nome_2122" data-name="Gradiente sem nome 212" x1="13.27" y1="50.03" x2="13.27" y2="17.51" xlink:href="#Gradiente_sem_nome_212"/>
    <linearGradient id="Gradiente_sem_nome_2123" data-name="Gradiente sem nome 212" x1="86.75" y1="49.88" x2="86.75" y2="15.9" xlink:href="#Gradiente_sem_nome_212"/>
    <linearGradient id="Gradiente_sem_nome_2124" data-name="Gradiente sem nome 212" x1="107.2" y1="49.98" x2="107.2" y2="17.72" xlink:href="#Gradiente_sem_nome_212"/>
    <linearGradient id="Gradiente_sem_nome_1627" data-name="Gradiente sem nome 162" x1="144.16" y1="49.94" x2="144.16" y2="48.51" xlink:href="#Gradiente_sem_nome_162"/>
    <linearGradient id="Gradiente_sem_nome_2125" data-name="Gradiente sem nome 212" x1="144.97" y1="49.94" x2="144.97" y2="13.95" xlink:href="#Gradiente_sem_nome_212"/>
  </defs>
  <g>
    <path class="st3" d="M218.71,49.92h-13.07c-1.2,0-2.33-.23-3.4-.7-1.07-.46-1.98-1.08-2.76-1.86-.77-.77-1.39-1.69-1.86-2.76-.46-1.06-.7-2.2-.7-3.4v-18.58c0-1.2.23-2.33.7-3.4.46-1.06,1.08-1.98,1.86-2.76s1.69-1.39,2.76-1.86c1.06-.46,2.2-.7,3.4-.7h13.07v6.39h-13.07c-.46,0-.87.17-1.22.52-.35.35-.52.75-.52,1.22v19.74c0,.5.16.92.49,1.25.33.33.74.49,1.25.49h13.07v6.39Z"/>
    <path class="st3" d="M236.42,13.92c1.2,0,2.32.23,3.37.7,1.05.46,1.96,1.09,2.76,1.89.79.79,1.42,1.71,1.89,2.76.46,1.05.7,2.17.7,3.37v7.2c0,1.86-.54,3.55-1.63,5.08-1.08,1.53-2.52,2.58-4.3,3.16l6.39,11.85h-7.9l-6.16-11.38h-3.54v11.38h-6.97V13.92h15.39ZM228,20.3v11.85h8.42c.46,0,.87-.17,1.22-.52s.52-.75.52-1.22v-8.36c0-.46-.17-.87-.52-1.22s-.76-.52-1.22-.52h-8.42Z"/>
    <path class="st3" d="M251.98,43.53v-23.23h-4.65v-6.39h16.26v6.39h-4.65v23.23h4.65v6.39h-16.26v-6.39h4.65Z"/>
    <path class="st3" d="M288.56,20.3h-15.1c-.46,0-.87.17-1.22.52-.35.35-.52.75-.52,1.22v4.94c0,.46.17.87.52,1.22.35.35.76.52,1.22.52h7.84c1.2,0,2.33.24,3.4.73,1.06.48,1.98,1.12,2.76,1.92.77.79,1.39,1.71,1.86,2.76.46,1.05.7,2.15.7,3.31v3.77c0,1.2-.23,2.33-.7,3.4-.46,1.07-1.08,1.98-1.86,2.76-.77.77-1.69,1.39-2.76,1.86-1.07.46-2.2.7-3.4.7h-15.33v-6.39h15.33c.46,0,.87-.17,1.22-.52.35-.35.52-.76.52-1.22v-4.94c0-.46-.17-.87-.52-1.22s-.76-.52-1.22-.52h-7.84c-1.2,0-2.33-.22-3.4-.67-1.07-.44-1.98-1.05-2.76-1.83-.77-.77-1.39-1.66-1.86-2.67-.46-1.01-.7-2.09-.7-3.25v-4.06c0-1.2.23-2.33.7-3.4.46-1.06,1.08-1.98,1.86-2.76.77-.77,1.69-1.39,2.76-1.86,1.06-.46,2.2-.7,3.4-.7h15.1v6.39Z"/>
    <path class="st3" d="M298.61,49.92v-23.23h-8.3v-6.39h8.3v-6.39h6.97v6.39h8.3v6.39h-8.3v23.23h-6.97Z"/>
    <path class="st3" d="M315.33,49.92v-27.29c0-1.2.23-2.33.7-3.4.46-1.06,1.08-1.98,1.86-2.76s1.69-1.39,2.76-1.86c1.06-.46,2.2-.7,3.4-.7h16.55v36h-6.97v-11.38h-11.32v11.38h-6.97ZM320.33,11.01c0-.73.11-1.46.32-2.18.21-.73.53-1.38.96-1.96.43-.58.96-1.04,1.6-1.38.64-.34,1.36-.52,2.18-.52.7,0,1.31.11,1.83.32.52.21.98.46,1.36.73.39.27.73.51,1.02.73.29.21.53.32.73.32.27,0,.48-.23.64-.7.15-.46.23-.79.23-.99h4.36c0,.73-.13,1.45-.38,2.16-.25.71-.61,1.35-1.07,1.93-.46.58-1.02,1.04-1.66,1.38-.64.34-1.35.52-2.12.52-.66,0-1.24-.1-1.74-.31-.5-.21-.95-.44-1.34-.71-.39-.26-.74-.5-1.05-.71-.31-.21-.58-.31-.81-.31-.12,0-.22.08-.32.23-.1.15-.17.32-.23.51-.06.19-.1.37-.12.56-.02.19-.03.32-.03.39h-4.36ZM333.63,32.15v-11.85h-9.58c-.5,0-.92.17-1.25.49-.33.33-.49.75-.49,1.25v10.1h11.32Z"/>
    <path class="st3" d="M356.85,13.92h15.21c1.08,0,2.1.21,3.05.64.95.43,1.78,1,2.5,1.71.72.72,1.28,1.55,1.68,2.5.41.95.61,1.97.61,3.05v4.99c0,.62-.17,1.38-.52,2.29-.35.91-.91,1.66-1.68,2.24,1.2.85,2.07,1.78,2.61,2.79.54,1.01.81,2.17.81,3.48v4.47c0,1.08-.2,2.1-.61,3.05-.41.95-.97,1.78-1.68,2.5-.72.72-1.55,1.28-2.5,1.68-.95.41-1.97.61-3.05.61h-16.43V13.92ZM361.03,17.46v12.6h11.03c1.32,0,2.25-.33,2.82-.99.56-.66.84-1.41.84-2.26v-5.69c0-1.01-.36-1.87-1.07-2.58-.72-.72-1.58-1.07-2.58-1.07h-11.03ZM361.03,33.6v12.78h12.25c1.05,0,1.92-.35,2.61-1.05.7-.7,1.05-1.57,1.05-2.61v-5.46c0-1.01-.36-1.87-1.07-2.58-.72-.72-1.58-1.07-2.58-1.07h-12.25Z"/>
    <path class="st3" d="M398.61,13.92c1.08,0,2.1.21,3.05.64.95.43,1.78,1,2.5,1.71.72.72,1.28,1.55,1.68,2.5.41.95.61,1.97.61,3.05v7.78c0,.81-.16,1.66-.49,2.56-.33.89-.8,1.71-1.42,2.47-.62.75-1.38,1.4-2.29,1.95-.91.54-1.95.89-3.11,1.05l6.62,12.31h-4.59l-6.74-12.49h-6.79v12.49h-4.18V13.92h15.16ZM387.63,17.46v16.43h10.98c1.01,0,1.87-.36,2.58-1.07.72-.72,1.07-1.6,1.07-2.64v-9.06c0-1.01-.36-1.87-1.07-2.58-.72-.72-1.58-1.07-2.58-1.07h-10.98Z"/>
    <path class="st3" d="M408.19,49.92v-28.11c0-1.08.2-2.11.61-3.08.41-.97.97-1.81,1.68-2.53.72-.72,1.55-1.28,2.5-1.68.95-.41,1.96-.61,3.05-.61h16.43v36h-4.18v-12.49h-15.91v12.49h-4.18ZM428.28,33.89v-16.43h-12.25c-1.05,0-1.92.35-2.61,1.05-.7.7-1.05,1.57-1.05,2.61v12.78h15.91Z"/>
    <path class="st3" d="M456.33,17.46h-14.87c-1.01,0-1.87.36-2.58,1.07-.72.72-1.07,1.58-1.07,2.58v5.34c0,1.01.36,1.87,1.07,2.58.72.72,1.58,1.07,2.58,1.07h8.65c1.05,0,2.04.21,2.99.64.95.43,1.78,1,2.5,1.71.72.72,1.28,1.55,1.68,2.5.41.95.61,1.93.61,2.93v4.18c0,1.08-.21,2.1-.62,3.05-.41.95-.98,1.78-1.71,2.5-.73.72-1.56,1.28-2.52,1.68-.95.41-1.95.61-3,.61h-15.1v-3.54h15.1c1.01,0,1.87-.36,2.58-1.07.72-.72,1.07-1.58,1.07-2.58v-5.4c0-1.01-.36-1.87-1.07-2.58-.72-.72-1.58-1.07-2.58-1.07h-8.65c-1.08,0-2.1-.2-3.05-.61-.95-.41-1.77-.96-2.47-1.66-.7-.7-1.25-1.5-1.65-2.41-.41-.91-.61-1.87-.61-2.87v-4.3c0-1.08.21-2.11.62-3.08.41-.97.97-1.81,1.68-2.53.71-.72,1.54-1.28,2.49-1.68.95-.41,1.97-.61,3.05-.61h14.87v3.54Z"/>
    <path class="st3" d="M464.11,46.38v-28.92h-5.11v-3.54h14.4v3.54h-5.11v28.92h5.11v3.54h-14.4v-3.54h5.11Z"/>
    <path class="st3" d="M495,49.92h-11.44c-1.08,0-2.1-.2-3.05-.61-.95-.41-1.78-.97-2.5-1.68-.72-.72-1.28-1.55-1.68-2.5-.41-.95-.61-1.96-.61-3.05V13.92h4.18v28.8c0,1.01.36,1.87,1.07,2.58.72.72,1.58,1.07,2.58,1.07h11.44v3.54Z"/>
  </g>
  <g>
    <g>
      <path class="st4" d="M12.93,23.31s.05-.05.11-.05h15.13v-9.23h-4.28c-3.3,0-5.96.85-7.96,2.55-1.92,1.63-2.91,3.88-2.99,6.72Z"/>
      <path class="st6" d="M13.17,40.8c-.13,0-.21-.04-.24-.12.03,1.38.28,2.63.78,3.75.53,1.18,1.28,2.19,2.25,3.02.97.83,2.12,1.47,3.47,1.92,1.34.44,2.83.67,4.46.67h4.28v-9.23h-15Z"/>
      <path class="st3" d="M14.75,40.56s0,.08.02.11c0-.08,0-.15,0-.22v-16.78c0-.12.01-.24.01-.36-.01.02-.02.04-.02.07v17.18Z"/>
      <path class="st3" d="M17.43,47.44c-.85-.83-1.51-1.84-1.97-3.02-.44-1.12-.66-2.37-.69-3.75-.01-.03-.02-.07-.02-.11v-17.18s.01-.05.02-.07c.07-2.84.94-5.09,2.63-6.72,1.76-1.7,4.09-2.55,6.99-2.55h-9.76c-2.9,0-5.23.85-6.99,2.55-1.76,1.7-2.64,4.06-2.64,7.08v16.78c0,1.47.23,2.8.7,3.98.46,1.18,1.12,2.19,1.97,3.02.85.83,1.87,1.47,3.05,1.92,1.18.44,2.49.67,3.92.67h9.76c-1.43,0-2.74-.22-3.92-.67-1.18-.44-2.2-1.08-3.05-1.92Z"/>
    </g>
    <path class="st3" d="M39.66,40.72s0-.08,0-.13c-.04.06-.03.1,0,.13Z"/>
    <g>
      <path class="st2" d="M53.44,47.17c.87-.87,1.56-1.89,2.06-3.05.5-1.16.75-2.4.75-3.72V14h-9.75v26.59c0,.12-.06.17-.17.17h-11.43c-.09,0-.14-.01-.17-.04.04,1.2.28,2.33.74,3.4.5,1.16,1.19,2.18,2.06,3.05s1.89,1.56,3.05,2.06c.77.33,6.51.54,7.36.66.84-.11,1.65-.32,2.43-.66,1.18-.5,2.21-1.19,3.08-2.06Z"/>
      <path class="st8" d="M50.36,49.23c1.18-.5,2.21-1.19,3.08-2.06.87-.87,1.56-1.89,2.06-3.05.5-1.16.75-2.4.75-3.72v-5.54c-.86-.53-1.87-.88-2.81-1.03.05-4.97.14-9.95.23-14.92,0-.12-.07-.29-.05-.38.07-.37.98-.81,1.26-1.07l-.29-1.4.47.03c-.06.29.29.43.5.32.17-.09.19-.79.03-.89-.58-.2-.44.18-.61.27-.05.03-.46.01-.49-.01l-.21-1.64c.05-.06.43-.06.49-.04.09.04,0,.23.14.32.09.06.38.02.5.02.05-.03.08-.24.08-.45h-6.36l.02.34c.13-.02.45.06.55.02.09-.03.02-.23.16-.31.1-.06.37.02.5,0-.13.33-.14,1.33-.3,1.57-.11.17-.36.07-.53.09l-.09-.27-.5-.02-.08.86c.13-.02.45.06.55.03.04-.02.14-.47.55-.31l-.25,1.41,1.14.96-.24,15.41c-1.54.29-3,.77-4.1,1.97,0,0,0,0-.01.01v4.81c0,.12-.06.17-.17.17h-.15c.27.89.47,1.78.19,2.67-.49,1.56-1.9,2.73-2.5,4.43-.22.61-.35,1.19-.41,1.73,1.86.14,3.98.23,4.48.3.84-.11,1.65-.32,2.43-.66ZM53.22,39.41c1.76,1.09,1.72,3.54-.06,4.57l.06-4.57ZM52.52,39.11l.35.2-.06,4.69c0,.21-.47.32-.45.03l.16-4.92ZM51.75,39.11h.46s-.08,5.19-.08,5.19h-.46s.08-5.19.08-5.19ZM51.06,39.14h.46s-.07,5.02-.07,5.02h-.46s.07-5.02.07-5.02ZM50.77,39.37c.02,1.21.01,2.42,0,3.62,0,.22,0,.55-.03.76-.02.1.05.19-.11.16-1.75-1.06-1.67-3.59.14-4.54Z"/>
      <path class="st3" d="M42.46,47.17c-.87-.87-1.56-1.89-2.06-3.05-.46-1.07-.7-2.2-.74-3.4-.04-.03-.04-.07,0-.13,0-.06,0-.12,0-.19V14h-9.74v26.41c0,1.32.25,2.55.75,3.72.5,1.16,1.19,2.18,2.06,3.05.87.87,1.89,1.56,3.05,2.06,1.16.5,2.42.75,3.77.75h7.08c.45,0,.88-.04,1.31-.1-.85-.11-1.66-.32-2.43-.66-1.16-.5-2.18-1.19-3.05-2.06Z"/>
    </g>
    <g>
      <path class="st14" d="M123.51,47.17c.87-.87,1.56-1.89,2.06-3.05.5-1.16.75-2.4.75-3.72V14h-9.75v26.59c0,.12-.06.17-.17.17h-11.43c-.09,0-.14-.01-.17-.04.04,1.2.28,2.33.74,3.4.5,1.16,1.19,2.18,2.06,3.05.87.87,1.89,1.56,3.05,2.06.77.33,6.51.54,7.36.66.84-.11,1.65-.32,2.43-.66,1.18-.5,2.21-1.19,3.08-2.06Z"/>
      <path class="st3" d="M112.52,47.17c-.87-.87-1.56-1.89-2.06-3.05-.46-1.07-.7-2.2-.74-3.4-.04-.03-.04-.07,0-.13,0-.06,0-.12,0-.19V14h-9.74v26.41c0,1.32.25,2.55.75,3.72.5,1.16,1.19,2.18,2.06,3.05s1.89,1.56,3.05,2.06c1.16.5,2.42.75,3.77.75h7.08c.45,0,.88-.04,1.31-.1-.85-.11-1.66-.32-2.43-.66-1.16-.5-2.18-1.19-3.05-2.06Z"/>
    </g>
    <g>
      <path class="st10" d="M63.29,40.71c-.31,0-.46-.17-.46-.52v.17c0,1.47.24,2.8.73,3.98.48,1.18,1.15,2.19,2,3.02.85.83,1.87,1.47,3.05,1.92,1.18.44,7.39.67,8.79.67h2.79v-9.23h-16.88Z"/>
      <path class="st3" d="M70.48,47.36c-.85-.83-1.52-1.84-2-3.02-.48-1.18-.73-2.5-.73-3.98V13.95h-9.75v26.41c0,1.47.24,2.8.73,3.98.48,1.18,1.15,2.19,2,3.02.85.83,1.87,1.47,3.05,1.92,1.18.44,2.47.67,3.86.67h9.75c-1.39,0-2.68-.22-3.86-.67-1.18-.44-2.2-1.08-3.05-1.92Z"/>
    </g>
    <path class="st11" d="M148.61,38.27c1.47-.81,2.62-1.95,3.45-3.42.83-1.47,1.25-3.06,1.25-4.76v-6.5c0-1.31-.25-2.56-.75-3.74-.5-1.18-1.19-2.21-2.06-3.08-.87-.87-1.89-1.56-3.05-2.06-1.16-.5-2.4-.75-3.72-.75h-14.3v25.72h8.84l5.51,10.27h11.15l-6.33-11.67ZM143.56,30.32c0,.08-.04.12-.12.12h-14v-7.26h13.95c.12,0,.17.06.17.17v6.97Z"/>
    <g>
      <path class="st0" d="M170.56,14c-2.9,0-5.23.86-6.99,2.58-1.75,1.71-2.62,4.03-2.64,6.97,0-.22.12-.33.35-.33h11.37v7.26h-11.72v9.23h11.72v10.27h9.75V14h-11.83Z"/>
      <path class="st13" d="M182.37,24.72l-15.16-10.26c-1.41.42-2.64,1.12-3.67,2.12-1.56,1.52-2.42,3.54-2.6,6.05,1.64-.94,3.54-1.48,5.56-1.48,6.17,0,11.18,5.01,11.18,11.18,0,3.92-2.02,7.36-5.07,9.36v4.18l9.75-6.6v-14.56Z"/>
      <path class="st3" d="M165.85,30.48h0v-6.85s0-.05,0-.08c0,0,0,.01,0,.02v6.91Z"/>
      <path class="st3" d="M165.85,30.48v-6.91s0-.01,0-.02c.02-2.94.89-5.27,2.64-6.97,1.76-1.72,4.09-2.58,6.99-2.58h-9.75c-2.9,0-5.23.86-6.99,2.58-1.76,1.72-2.64,4.07-2.64,7.05v26.35h9.75v-10.27h0v-9.23h0Z"/>
    </g>
    <g>
      <path class="st15" d="M74.37,23.18v-9.23h24.73v9.23h-24.73Z"/>
      <path class="st3" d="M81.86,49.94V14h9.75v35.94h-9.75Z"/>
    </g>
    <path class="st7" d="M17.43,47.44c-.85-.83-1.51-1.84-1.97-3.02-.44-1.12-.66-2.37-.69-3.75-.01-.03-.02-.07-.02-.11v-16.82c-.44-.25-.86-.31-.86-.31-.58-.14-1.02.28-1.23.41-.21.13-.39.07-.76-.1-.37-.17-.21.46-.25.54-.04.08-.1.05-.1.05-.19-.09-.23.22-.23.22-.21-.12-.27.24-.28.34,0,.09-.09,0-.29.16-.21.17.22.87.57,1.33.34.46-.14.99-.31,1.37-.17.38-.82,1.26-.89,1.32-.07.06-.27,0-.27,0l-.02-.09c-.2-1.12-1.7-2.19-1.7-2.19.05-.73-.67-2.51-.78-2.74-.1-.23-.15-.46-.11-1.1.04-.64-.15-1.88-.17-2.54-.02-.67-.25-1.98-.22-2.3.02-.18,0-.39-.01-.58-.49.64-.88,1.34-1.17,2.12-.12,1.18.06,2.77.04,3.06-.02.32.04.46.08.71.04.25.03.34.06.82.03.47.3,1.49.46,2.38.15.89.45,1.63.7,2.1.24.46.47,1.13.8,1.6.32.47.32,1.05.32,1.05-.22.72-.12,1.78-.05,2.27.08.48.6,1.82.89,2.45.28.62,1.14,1.64,1.61,1.98.47.34.6.95.6.95,0,0-1.98,3.61-2.46,4.59-.34.69-1.07,1.58-1.96,2.79.28.39.58.75.92,1.09.85.83,1.87,1.47,3.05,1.92,1.18.44,2.49.67,3.92.67h4.85c.25-.15.55-.29.94-.4.18-.05.34-.09.48-.13-.14-.05-.29-.09-.43-.14-1.18-.44-2.2-1.08-3.05-1.92Z"/>
    <path class="st12" d="M91.61,22.5v-.02s.03.03.05.04l-.05-.02ZM82.81,43.27l-.95.14v-6.36s.07-.08.1-.11c.49-.45,1.21-.86,1.82-1.14.51-.23,1.05-.35,1.56-.57-1.23-.41-2.65-.29-3.49.45v-1.76c.18-.09.38-.17.59-.24.48-.15.93-.14,1.41-.2-.73-.29-1.41-.35-2-.21v-4.49c.18-.22.36-.43.54-.65.7.86,1.48,1.66,2.16,2.53,2.9,3.65,5.84,8.37,5.82,13.16,0,2.22-.7,4.58-2.47,6.05-.29-.65-.49-1.51-.81-2.13-.38-.74-1.31-.94-1.97-1.39,1.95-1.51,2.68-4.11,2.16-6.47-.38,2.14-1.67,3.81-3.52,4.94l-.96-1.56ZM82.15,42.86l1.32-.31c.31-.16-.08-.66-.61-.41-.16.07-.45.34-.58.47-.06.06-.21.16-.13.25ZM83.67,20.89c-.59.2-1.19.36-1.81.49v-.53c3.25-1.02,6.26-2.78,8.89-4.95.3.51.58,1.04.86,1.57v5.01c-1.18-1.2-3.13-1.52-4.71-1.02l.26.76c1.14-.48,2.44-.41,3.6-.07l.85.35v1.37c-1.59-1.14-3.78-1.72-4.15.98.04.22.55-.19.69-.25,1.05-.42,2.31-.46,3.46-.37v7.86c-1.53-.69-3.24-.52-4.67.41l-.26-1.72-1.8-.46.46-4.32-1.12-1.08-.56-4.04ZM86.12,29.84c.41.08,1.09.3,1.48.32.14,0,.2.06.23-.14.02-.66-1.37-.36-1.7-.18ZM88.03,34.1l1.63,1.17.27,3.4c.63-.23,1.18-.52,1.68-.86v-4.99c-1.31,0-2.6.33-3.58,1.28ZM82.84,26.53c-.35-.34-.68-.54-.98-.65v.75c.31-.09.64-.14.98-.1ZM82.84,26.53c-.35-.34-.68-.54-.98-.65v.75c.31-.09.64-.14.98-.1Z"/>
    <path class="st1" d="M114.44,48.65c-.7-.41-1.35-.9-1.92-1.48-.87-.87-1.56-1.89-2.06-3.05-.46-1.07-.7-2.2-.74-3.4-.04-.03-.04-.07,0-.13,0-.06,0-.12,0-.19v-22.63c-.34-.04-.66-.06-.93-.05-.29,0-1.67.44-1.83.62-.41.48-.13,1.02-.26,1.56-.11.45-1.08,2.58-1.05,2.8.02.12.46.41.54,1,.05.42-.17,1.39-.05,1.64.18.38,1.33.21,1.49.4.04.05.33,1.19.32,1.25-.05.34-.82,1.01-1.07,1.44-.6,1-.91,2.31-1.44,3.37-.3.16-.73-.84-.8-1.05-.53-1.53-.99-3.56-.24-5.08.1-.2.41-.17.52-.3.28-.34.45-1.16.04-1.45-.15-.1-1.8-.27-1.98-.21-.1.03-1.69,1.07-1.76,1.14-.24.22-.23.53-.44.76-.16.18-.48.3-.8.43v1.24c.45-.16.95-.44,1.16-.41.13.02.08.33.19.45,1.12,1.35.86,3.11,1.06,4.8.06.49.43,1.31.42,1.7,0,.48-.45,1.03-.35,1.69.08.5,1.26.99,1.34,1.58.06.43-.16.94-.16,1.4.02,1.24.24,3.9,1.13,4.82.34.36.96.16.99.77.05.9-.67,2.62-1.45,4.3.48.31.98.59,1.52.83,1.16.5,2.42.75,3.77.75h3.85c.19-.13.36-.26.5-.43.16-.19.34-.57.49-.91Z"/>
    <g class="st16">
      <path class="st5" d="M145.27,49.94c-.08-1.11-1.19-1.56-2.23-1.4l.75,1.4h1.48Z"/>
      <path class="st9" d="M143.85,24.47c-.1.1-.19.19-.29.29v4.37l1.2-1.44.83,3.37-.12.16c-3.2.98-4.88,4.46-3.43,7.55.65,1.39,2.13,2.38,3.68,1.91-1.2-.72-1.9-1.64-2.13-3.05-.28-1.76.89-3.46,2.66-3.74l1.94,8.64-1.75.43c-1.64.4-4.23-.8-5.28-2.06-2.43-2.9-1.81-6.45.33-9.25l1-1.2h-3.57c-1.77,2.98-2.46,6.31-.28,9.81,2.15,3.45,6.06,4.54,9.87,3.36l1.2,4.85c.04.17-.1,1.16-.16,1.39,0,.03-.02.06-.03.09h1.04c.48-2.2-.7-4.58-1.06-6.76.52-.19.98-.43,1.41-.71l-.75-1.38c-.35.41-.91,1-1.06.9l-2.15-8.29c1.4-.26,2.95.72,3.58,1.93.14.26.24.56.32.88.46-.5.87-1.06,1.22-1.68.24-.42.44-.85.61-1.29-.76-1.15-1.93-2.08-3.53-2.53-1.02-.28-1.88-.17-2.91-.14l-.94-4.02c2.35-3.03,4.27-7.35,3.73-11.31-.49-.33-1.02-.62-1.58-.86-.17-.07-.34-.13-.51-.19,1.12,1.24.91,3.29.44,4.82-.51,1.67-1.61,3.07-2.84,4.3-.36-1.42-.73-2.94-.73-4.41,0-1.82.92-3.81,2.35-4.95-.78-.21-1.59-.32-2.43-.32h-.22c-.45,1.12-.77,2.3-.87,3.24-.26,2.58.68,4.79,1.2,7.28Z"/>
    </g>
    <rect class="st3" x="128.06" y="13.95" width="9.75" height="35.99"/>
  </g>
</svg>